# xmcd
#
# Track frame offsets: 
#        150
#        22345
#        44387
#        73497
#        95047
#        123205
#        146250
#        173117
#        198135
#
# Disc length: 2936 seconds
#
# Revision: 2
# Processed by: cddbd v1.5.2PL0 Copyright (c) Steve Scherf et al.
# Submitted via: ExactAudioCopy v0.95b4
#
DISCID=820b7609
DTITLE=Chuck Brown - The Spirit of Christmas
DYEAR=1999
DGENRE=Xmas
TTITLE0=Merry Christmas Baby
TTITLE1=White Christmas
TTITLE2=What are You Doing New Year's Eve
TTITLE3=This Christmas
TTITLE4=Silent Night
TTITLE5=God Rest Ye Merry Gentlemen
TTITLE6=Have Yourself a Merry Little Christmas
TTITLE7=The Christmas Song - with Eva Cassidy
TTITLE8=That Spirit of Christmas - with Eva Cassidy
EXTD=
EXTT0=
EXTT1=
EXTT2=
EXTT3=
EXTT4=
EXTT5=
EXTT6=
EXTT7=
EXTT8=
PLAYORDER=
